<svg xmlns="http://www.w3.org/2000/svg" width="1640" height="968" viewBox="0 0 1640 968">
<rect width="100%" height="100%" fill="#f4f1ea"/>
<rect x="28" y="24" width="1584" height="84" rx="18" fill="#1f2933"/>
<text x="56" y="60" fill="#f8fafc" font-family="DejaVu Sans, Arial, sans-serif" font-size="34" font-weight="700">fastsed vs GNU sed</text>
<text x="56" y="92" fill="#cbd5e1" font-family="DejaVu Sans, Arial, sans-serif" font-size="18">Average wall-clock time across benchmark cases. Ratio is fastsed / sed.</text>
<rect x="36" y="132" width="1568" height="38" rx="10" fill="#d9e2ec"/>
<text x="52" y="157" fill="#102a43" font-family="DejaVu Sans, Arial, sans-serif" font-size="18" font-weight="700">Benchmark</text>
<text x="420" y="157" fill="#102a43" font-family="DejaVu Sans, Arial, sans-serif" font-size="18" font-weight="700">fastsed avg/best</text>
<text x="620" y="157" fill="#102a43" font-family="DejaVu Sans, Arial, sans-serif" font-size="18" font-weight="700">GNU sed avg/best</text>
<text x="810" y="157" fill="#102a43" font-family="DejaVu Sans, Arial, sans-serif" font-size="18" font-weight="700">Ratio</text>
<text x="1030" y="157" fill="#102a43" font-family="DejaVu Sans, Arial, sans-serif" font-size="18" font-weight="700">Comparison</text>
<rect x="36" y="146" width="1568" height="48" rx="8" fill="#fffdf8"/>
<text x="52" y="174" fill="#102a43" font-family="DejaVu Sans, Arial, sans-serif" font-size="18">global-substitute</text>
<text x="420" y="174" fill="#102a43" font-family="DejaVu Sans, Arial, sans-serif" font-size="18">0.0493s / 0.0468s</text>
<text x="620" y="174" fill="#102a43" font-family="DejaVu Sans, Arial, sans-serif" font-size="18">0.0551s / 0.0494s</text>
<text x="810" y="174" fill="#1f9d55" font-family="DejaVu Sans, Arial, sans-serif" font-size="18" font-weight="700">0.895x</text>
<rect x="1030" y="158" width="300" height="22" rx="11" fill="#e5e7eb"/>
<rect x="1030" y="158" width="250.67" height="22" rx="11" fill="#1f9d55"/>
<text x="1346" y="174" fill="#334e68" font-family="DejaVu Sans, Arial, sans-serif" font-size="17">1.12x faster</text>
<rect x="36" y="198" width="1568" height="48" rx="8" fill="#f8f6f1"/>
<text x="52" y="226" fill="#102a43" font-family="DejaVu Sans, Arial, sans-serif" font-size="18">extended-capture</text>
<text x="420" y="226" fill="#102a43" font-family="DejaVu Sans, Arial, sans-serif" font-size="18">0.4144s / 0.3952s</text>
<text x="620" y="226" fill="#102a43" font-family="DejaVu Sans, Arial, sans-serif" font-size="18">0.9363s / 0.8812s</text>
<text x="810" y="226" fill="#1f9d55" font-family="DejaVu Sans, Arial, sans-serif" font-size="18" font-weight="700">0.443x</text>
<rect x="1030" y="210" width="300" height="22" rx="11" fill="#e5e7eb"/>
<rect x="1030" y="210" width="123.93" height="22" rx="11" fill="#1f9d55"/>
<text x="1346" y="226" fill="#334e68" font-family="DejaVu Sans, Arial, sans-serif" font-size="17">2.26x faster</text>
<rect x="36" y="250" width="1568" height="48" rx="8" fill="#fffdf8"/>
<text x="52" y="278" fill="#102a43" font-family="DejaVu Sans, Arial, sans-serif" font-size="18">address-delete</text>
<text x="420" y="278" fill="#102a43" font-family="DejaVu Sans, Arial, sans-serif" font-size="18">0.0351s / 0.0314s</text>
<text x="620" y="278" fill="#102a43" font-family="DejaVu Sans, Arial, sans-serif" font-size="18">0.0578s / 0.0513s</text>
<text x="810" y="278" fill="#1f9d55" font-family="DejaVu Sans, Arial, sans-serif" font-size="18" font-weight="700">0.607x</text>
<rect x="1030" y="262" width="300" height="22" rx="11" fill="#e5e7eb"/>
<rect x="1030" y="262" width="170.07" height="22" rx="11" fill="#1f9d55"/>
<text x="1346" y="278" fill="#334e68" font-family="DejaVu Sans, Arial, sans-serif" font-size="17">1.65x faster</text>
<rect x="36" y="302" width="1568" height="48" rx="8" fill="#f8f6f1"/>
<text x="52" y="330" fill="#102a43" font-family="DejaVu Sans, Arial, sans-serif" font-size="18">delete-comments</text>
<text x="420" y="330" fill="#102a43" font-family="DejaVu Sans, Arial, sans-serif" font-size="18">0.0226s / 0.0204s</text>
<text x="620" y="330" fill="#102a43" font-family="DejaVu Sans, Arial, sans-serif" font-size="18">0.0290s / 0.0264s</text>
<text x="810" y="330" fill="#1f9d55" font-family="DejaVu Sans, Arial, sans-serif" font-size="18" font-weight="700">0.777x</text>
<rect x="1030" y="314" width="300" height="22" rx="11" fill="#e5e7eb"/>
<rect x="1030" y="314" width="217.43" height="22" rx="11" fill="#1f9d55"/>
<text x="1346" y="330" fill="#334e68" font-family="DejaVu Sans, Arial, sans-serif" font-size="17">1.29x faster</text>
<rect x="36" y="354" width="1568" height="48" rx="8" fill="#fffdf8"/>
<text x="52" y="382" fill="#102a43" font-family="DejaVu Sans, Arial, sans-serif" font-size="18">transliterate-upper</text>
<text x="420" y="382" fill="#102a43" font-family="DejaVu Sans, Arial, sans-serif" font-size="18">0.0333s / 0.0311s</text>
<text x="620" y="382" fill="#102a43" font-family="DejaVu Sans, Arial, sans-serif" font-size="18">1.9012s / 1.7277s</text>
<text x="810" y="382" fill="#1f9d55" font-family="DejaVu Sans, Arial, sans-serif" font-size="18" font-weight="700">0.018x</text>
<rect x="1030" y="366" width="300" height="22" rx="11" fill="#e5e7eb"/>
<rect x="1030" y="366" width="8.00" height="22" rx="11" fill="#1f9d55"/>
<text x="1346" y="382" fill="#334e68" font-family="DejaVu Sans, Arial, sans-serif" font-size="17">57.01x faster</text>
<rect x="36" y="406" width="1568" height="48" rx="8" fill="#f8f6f1"/>
<text x="52" y="434" fill="#102a43" font-family="DejaVu Sans, Arial, sans-serif" font-size="18">nth-global</text>
<text x="420" y="434" fill="#102a43" font-family="DejaVu Sans, Arial, sans-serif" font-size="18">0.0431s / 0.0377s</text>
<text x="620" y="434" fill="#102a43" font-family="DejaVu Sans, Arial, sans-serif" font-size="18">0.1941s / 0.1679s</text>
<text x="810" y="434" fill="#1f9d55" font-family="DejaVu Sans, Arial, sans-serif" font-size="18" font-weight="700">0.222x</text>
<rect x="1030" y="418" width="300" height="22" rx="11" fill="#e5e7eb"/>
<rect x="1030" y="418" width="62.15" height="22" rx="11" fill="#1f9d55"/>
<text x="1346" y="434" fill="#334e68" font-family="DejaVu Sans, Arial, sans-serif" font-size="17">4.51x faster</text>
<rect x="36" y="458" width="1568" height="48" rx="8" fill="#fffdf8"/>
<text x="52" y="486" fill="#102a43" font-family="DejaVu Sans, Arial, sans-serif" font-size="18">compress-spaces</text>
<text x="420" y="486" fill="#102a43" font-family="DejaVu Sans, Arial, sans-serif" font-size="18">0.1106s / 0.0991s</text>
<text x="620" y="486" fill="#102a43" font-family="DejaVu Sans, Arial, sans-serif" font-size="18">0.2951s / 0.2831s</text>
<text x="810" y="486" fill="#1f9d55" font-family="DejaVu Sans, Arial, sans-serif" font-size="18" font-weight="700">0.375x</text>
<rect x="1030" y="470" width="300" height="22" rx="11" fill="#e5e7eb"/>
<rect x="1030" y="470" width="104.95" height="22" rx="11" fill="#1f9d55"/>
<text x="1346" y="486" fill="#334e68" font-family="DejaVu Sans, Arial, sans-serif" font-size="17">2.67x faster</text>
<rect x="36" y="510" width="1568" height="48" rx="8" fill="#f8f6f1"/>
<text x="52" y="538" fill="#102a43" font-family="DejaVu Sans, Arial, sans-serif" font-size="18">strip-trailing</text>
<text x="420" y="538" fill="#102a43" font-family="DejaVu Sans, Arial, sans-serif" font-size="18">0.2110s / 0.1911s</text>
<text x="620" y="538" fill="#102a43" font-family="DejaVu Sans, Arial, sans-serif" font-size="18">0.5552s / 0.5199s</text>
<text x="810" y="538" fill="#1f9d55" font-family="DejaVu Sans, Arial, sans-serif" font-size="18" font-weight="700">0.380x</text>
<rect x="1030" y="522" width="300" height="22" rx="11" fill="#e5e7eb"/>
<rect x="1030" y="522" width="106.40" height="22" rx="11" fill="#1f9d55"/>
<text x="1346" y="538" fill="#334e68" font-family="DejaVu Sans, Arial, sans-serif" font-size="17">2.63x faster</text>
<rect x="36" y="562" width="1568" height="48" rx="8" fill="#fffdf8"/>
<text x="52" y="590" fill="#102a43" font-family="DejaVu Sans, Arial, sans-serif" font-size="18">blank-delete</text>
<text x="420" y="590" fill="#102a43" font-family="DejaVu Sans, Arial, sans-serif" font-size="18">0.0109s / 0.0100s</text>
<text x="620" y="590" fill="#102a43" font-family="DejaVu Sans, Arial, sans-serif" font-size="18">0.0244s / 0.0218s</text>
<text x="810" y="590" fill="#1f9d55" font-family="DejaVu Sans, Arial, sans-serif" font-size="18" font-weight="700">0.448x</text>
<rect x="1030" y="574" width="300" height="22" rx="11" fill="#e5e7eb"/>
<rect x="1030" y="574" width="125.53" height="22" rx="11" fill="#1f9d55"/>
<text x="1346" y="590" fill="#334e68" font-family="DejaVu Sans, Arial, sans-serif" font-size="17">2.23x faster</text>
<rect x="36" y="614" width="1568" height="48" rx="8" fill="#f8f6f1"/>
<text x="52" y="642" fill="#102a43" font-family="DejaVu Sans, Arial, sans-serif" font-size="18">csv-reorder</text>
<text x="420" y="642" fill="#102a43" font-family="DejaVu Sans, Arial, sans-serif" font-size="18">0.6999s / 0.6248s</text>
<text x="620" y="642" fill="#102a43" font-family="DejaVu Sans, Arial, sans-serif" font-size="18">1.1616s / 1.0539s</text>
<text x="810" y="642" fill="#1f9d55" font-family="DejaVu Sans, Arial, sans-serif" font-size="18" font-weight="700">0.603x</text>
<rect x="1030" y="626" width="300" height="22" rx="11" fill="#e5e7eb"/>
<rect x="1030" y="626" width="168.70" height="22" rx="11" fill="#1f9d55"/>
<text x="1346" y="642" fill="#334e68" font-family="DejaVu Sans, Arial, sans-serif" font-size="17">1.66x faster</text>
<rect x="36" y="666" width="1568" height="48" rx="8" fill="#fffdf8"/>
<text x="52" y="694" fill="#102a43" font-family="DejaVu Sans, Arial, sans-serif" font-size="18">path-rewrite</text>
<text x="420" y="694" fill="#102a43" font-family="DejaVu Sans, Arial, sans-serif" font-size="18">0.0232s / 0.0218s</text>
<text x="620" y="694" fill="#102a43" font-family="DejaVu Sans, Arial, sans-serif" font-size="18">0.0733s / 0.0649s</text>
<text x="810" y="694" fill="#1f9d55" font-family="DejaVu Sans, Arial, sans-serif" font-size="18" font-weight="700">0.317x</text>
<rect x="1030" y="678" width="300" height="22" rx="11" fill="#e5e7eb"/>
<rect x="1030" y="678" width="88.74" height="22" rx="11" fill="#1f9d55"/>
<text x="1346" y="694" fill="#334e68" font-family="DejaVu Sans, Arial, sans-serif" font-size="17">3.16x faster</text>
<rect x="36" y="718" width="1568" height="48" rx="8" fill="#f8f6f1"/>
<text x="52" y="746" fill="#102a43" font-family="DejaVu Sans, Arial, sans-serif" font-size="18">step-delete</text>
<text x="420" y="746" fill="#102a43" font-family="DejaVu Sans, Arial, sans-serif" font-size="18">0.0145s / 0.0138s</text>
<text x="620" y="746" fill="#102a43" font-family="DejaVu Sans, Arial, sans-serif" font-size="18">0.0179s / 0.0166s</text>
<text x="810" y="746" fill="#1f9d55" font-family="DejaVu Sans, Arial, sans-serif" font-size="18" font-weight="700">0.810x</text>
<rect x="1030" y="730" width="300" height="22" rx="11" fill="#e5e7eb"/>
<rect x="1030" y="730" width="226.88" height="22" rx="11" fill="#1f9d55"/>
<text x="1346" y="746" fill="#334e68" font-family="DejaVu Sans, Arial, sans-serif" font-size="17">1.23x faster</text>
<rect x="36" y="770" width="1568" height="48" rx="8" fill="#fffdf8"/>
<text x="52" y="798" fill="#102a43" font-family="DejaVu Sans, Arial, sans-serif" font-size="18">email-redact</text>
<text x="420" y="798" fill="#102a43" font-family="DejaVu Sans, Arial, sans-serif" font-size="18">0.2039s / 0.1876s</text>
<text x="620" y="798" fill="#102a43" font-family="DejaVu Sans, Arial, sans-serif" font-size="18">0.8701s / 0.7941s</text>
<text x="810" y="798" fill="#1f9d55" font-family="DejaVu Sans, Arial, sans-serif" font-size="18" font-weight="700">0.234x</text>
<rect x="1030" y="782" width="300" height="22" rx="11" fill="#e5e7eb"/>
<rect x="1030" y="782" width="65.62" height="22" rx="11" fill="#1f9d55"/>
<text x="1346" y="798" fill="#334e68" font-family="DejaVu Sans, Arial, sans-serif" font-size="17">4.27x faster</text>
<rect x="36" y="822" width="1568" height="48" rx="8" fill="#f8f6f1"/>
<text x="52" y="850" fill="#102a43" font-family="DejaVu Sans, Arial, sans-serif" font-size="18">error-prefix</text>
<text x="420" y="850" fill="#102a43" font-family="DejaVu Sans, Arial, sans-serif" font-size="18">0.0344s / 0.0304s</text>
<text x="620" y="850" fill="#102a43" font-family="DejaVu Sans, Arial, sans-serif" font-size="18">0.0520s / 0.0453s</text>
<text x="810" y="850" fill="#1f9d55" font-family="DejaVu Sans, Arial, sans-serif" font-size="18" font-weight="700">0.661x</text>
<rect x="1030" y="834" width="300" height="22" rx="11" fill="#e5e7eb"/>
<rect x="1030" y="834" width="185.06" height="22" rx="11" fill="#1f9d55"/>
<text x="1346" y="850" fill="#334e68" font-family="DejaVu Sans, Arial, sans-serif" font-size="17">1.51x faster</text>
<rect x="36" y="874" width="1568" height="48" rx="8" fill="#fffdf8"/>
<text x="52" y="902" fill="#102a43" font-family="DejaVu Sans, Arial, sans-serif" font-size="18">status-rewrite</text>
<text x="420" y="902" fill="#102a43" font-family="DejaVu Sans, Arial, sans-serif" font-size="18">0.1931s / 0.1605s</text>
<text x="620" y="902" fill="#102a43" font-family="DejaVu Sans, Arial, sans-serif" font-size="18">0.6710s / 0.6431s</text>
<text x="810" y="902" fill="#1f9d55" font-family="DejaVu Sans, Arial, sans-serif" font-size="18" font-weight="700">0.288x</text>
<rect x="1030" y="886" width="300" height="22" rx="11" fill="#e5e7eb"/>
<rect x="1030" y="886" width="80.57" height="22" rx="11" fill="#1f9d55"/>
<text x="1346" y="902" fill="#334e68" font-family="DejaVu Sans, Arial, sans-serif" font-size="17">3.48x faster</text>
<text x="40" y="950" fill="#52606d" font-family="DejaVu Sans, Arial, sans-serif" font-size="16">Green rows favor fastsed. Red rows favor GNU sed.</text>
</svg>