<svg xmlns="http://www.w3.org/2000/svg" width="1640" height="968" viewBox="0 0 1640 968">
<rect width="100%" height="100%" fill="#f4f1ea"/>
<rect x="28" y="24" width="1584" height="84" rx="18" fill="#1f2933"/>
<text x="56" y="60" fill="#f8fafc" font-family="DejaVu Sans, Arial, sans-serif" font-size="34" font-weight="700">fastsed vs GNU sed</text>
<text x="56" y="92" fill="#cbd5e1" font-family="DejaVu Sans, Arial, sans-serif" font-size="18">Average wall-clock time across benchmark cases. Ratio is fastsed / sed.</text>
<rect x="36" y="132" width="1568" height="38" rx="10" fill="#d9e2ec"/>
<text x="52" y="157" fill="#102a43" font-family="DejaVu Sans, Arial, sans-serif" font-size="18" font-weight="700">Benchmark</text>
<text x="420" y="157" fill="#102a43" font-family="DejaVu Sans, Arial, sans-serif" font-size="18" font-weight="700">fastsed avg/best</text>
<text x="620" y="157" fill="#102a43" font-family="DejaVu Sans, Arial, sans-serif" font-size="18" font-weight="700">GNU sed avg/best</text>
<text x="810" y="157" fill="#102a43" font-family="DejaVu Sans, Arial, sans-serif" font-size="18" font-weight="700">Ratio</text>
<text x="1030" y="157" fill="#102a43" font-family="DejaVu Sans, Arial, sans-serif" font-size="18" font-weight="700">Comparison</text>
<rect x="36" y="146" width="1568" height="48" rx="8" fill="#fffdf8"/>
<text x="52" y="174" fill="#102a43" font-family="DejaVu Sans, Arial, sans-serif" font-size="18">global-substitute</text>
<text x="420" y="174" fill="#102a43" font-family="DejaVu Sans, Arial, sans-serif" font-size="18">0.0494s / 0.0470s</text>
<text x="620" y="174" fill="#102a43" font-family="DejaVu Sans, Arial, sans-serif" font-size="18">0.0579s / 0.0466s</text>
<text x="810" y="174" fill="#1f9d55" font-family="DejaVu Sans, Arial, sans-serif" font-size="18" font-weight="700">0.854x</text>
<rect x="1030" y="158" width="300" height="22" rx="11" fill="#e5e7eb"/>
<rect x="1030" y="158" width="239.03" height="22" rx="11" fill="#1f9d55"/>
<text x="1346" y="174" fill="#334e68" font-family="DejaVu Sans, Arial, sans-serif" font-size="17">1.17x faster</text>
<rect x="36" y="198" width="1568" height="48" rx="8" fill="#f8f6f1"/>
<text x="52" y="226" fill="#102a43" font-family="DejaVu Sans, Arial, sans-serif" font-size="18">extended-capture</text>
<text x="420" y="226" fill="#102a43" font-family="DejaVu Sans, Arial, sans-serif" font-size="18">0.4285s / 0.3676s</text>
<text x="620" y="226" fill="#102a43" font-family="DejaVu Sans, Arial, sans-serif" font-size="18">0.9502s / 0.8376s</text>
<text x="810" y="226" fill="#1f9d55" font-family="DejaVu Sans, Arial, sans-serif" font-size="18" font-weight="700">0.451x</text>
<rect x="1030" y="210" width="300" height="22" rx="11" fill="#e5e7eb"/>
<rect x="1030" y="210" width="126.27" height="22" rx="11" fill="#1f9d55"/>
<text x="1346" y="226" fill="#334e68" font-family="DejaVu Sans, Arial, sans-serif" font-size="17">2.22x faster</text>
<rect x="36" y="250" width="1568" height="48" rx="8" fill="#fffdf8"/>
<text x="52" y="278" fill="#102a43" font-family="DejaVu Sans, Arial, sans-serif" font-size="18">address-delete</text>
<text x="420" y="278" fill="#102a43" font-family="DejaVu Sans, Arial, sans-serif" font-size="18">0.0366s / 0.0315s</text>
<text x="620" y="278" fill="#102a43" font-family="DejaVu Sans, Arial, sans-serif" font-size="18">0.0592s / 0.0506s</text>
<text x="810" y="278" fill="#1f9d55" font-family="DejaVu Sans, Arial, sans-serif" font-size="18" font-weight="700">0.619x</text>
<rect x="1030" y="262" width="300" height="22" rx="11" fill="#e5e7eb"/>
<rect x="1030" y="262" width="173.31" height="22" rx="11" fill="#1f9d55"/>
<text x="1346" y="278" fill="#334e68" font-family="DejaVu Sans, Arial, sans-serif" font-size="17">1.62x faster</text>
<rect x="36" y="302" width="1568" height="48" rx="8" fill="#f8f6f1"/>
<text x="52" y="330" fill="#102a43" font-family="DejaVu Sans, Arial, sans-serif" font-size="18">delete-comments</text>
<text x="420" y="330" fill="#102a43" font-family="DejaVu Sans, Arial, sans-serif" font-size="18">0.0238s / 0.0203s</text>
<text x="620" y="330" fill="#102a43" font-family="DejaVu Sans, Arial, sans-serif" font-size="18">0.0318s / 0.0295s</text>
<text x="810" y="330" fill="#1f9d55" font-family="DejaVu Sans, Arial, sans-serif" font-size="18" font-weight="700">0.748x</text>
<rect x="1030" y="314" width="300" height="22" rx="11" fill="#e5e7eb"/>
<rect x="1030" y="314" width="209.56" height="22" rx="11" fill="#1f9d55"/>
<text x="1346" y="330" fill="#334e68" font-family="DejaVu Sans, Arial, sans-serif" font-size="17">1.34x faster</text>
<rect x="36" y="354" width="1568" height="48" rx="8" fill="#fffdf8"/>
<text x="52" y="382" fill="#102a43" font-family="DejaVu Sans, Arial, sans-serif" font-size="18">transliterate-upper</text>
<text x="420" y="382" fill="#102a43" font-family="DejaVu Sans, Arial, sans-serif" font-size="18">0.0344s / 0.0291s</text>
<text x="620" y="382" fill="#102a43" font-family="DejaVu Sans, Arial, sans-serif" font-size="18">1.8765s / 1.7793s</text>
<text x="810" y="382" fill="#1f9d55" font-family="DejaVu Sans, Arial, sans-serif" font-size="18" font-weight="700">0.018x</text>
<rect x="1030" y="366" width="300" height="22" rx="11" fill="#e5e7eb"/>
<rect x="1030" y="366" width="8.00" height="22" rx="11" fill="#1f9d55"/>
<text x="1346" y="382" fill="#334e68" font-family="DejaVu Sans, Arial, sans-serif" font-size="17">54.56x faster</text>
<rect x="36" y="406" width="1568" height="48" rx="8" fill="#f8f6f1"/>
<text x="52" y="434" fill="#102a43" font-family="DejaVu Sans, Arial, sans-serif" font-size="18">nth-global</text>
<text x="420" y="434" fill="#102a43" font-family="DejaVu Sans, Arial, sans-serif" font-size="18">0.0414s / 0.0364s</text>
<text x="620" y="434" fill="#102a43" font-family="DejaVu Sans, Arial, sans-serif" font-size="18">0.1765s / 0.1672s</text>
<text x="810" y="434" fill="#1f9d55" font-family="DejaVu Sans, Arial, sans-serif" font-size="18" font-weight="700">0.234x</text>
<rect x="1030" y="418" width="300" height="22" rx="11" fill="#e5e7eb"/>
<rect x="1030" y="418" width="65.63" height="22" rx="11" fill="#1f9d55"/>
<text x="1346" y="434" fill="#334e68" font-family="DejaVu Sans, Arial, sans-serif" font-size="17">4.27x faster</text>
<rect x="36" y="458" width="1568" height="48" rx="8" fill="#fffdf8"/>
<text x="52" y="486" fill="#102a43" font-family="DejaVu Sans, Arial, sans-serif" font-size="18">compress-spaces</text>
<text x="420" y="486" fill="#102a43" font-family="DejaVu Sans, Arial, sans-serif" font-size="18">0.1114s / 0.0973s</text>
<text x="620" y="486" fill="#102a43" font-family="DejaVu Sans, Arial, sans-serif" font-size="18">0.3239s / 0.2841s</text>
<text x="810" y="486" fill="#1f9d55" font-family="DejaVu Sans, Arial, sans-serif" font-size="18" font-weight="700">0.344x</text>
<rect x="1030" y="470" width="300" height="22" rx="11" fill="#e5e7eb"/>
<rect x="1030" y="470" width="96.29" height="22" rx="11" fill="#1f9d55"/>
<text x="1346" y="486" fill="#334e68" font-family="DejaVu Sans, Arial, sans-serif" font-size="17">2.91x faster</text>
<rect x="36" y="510" width="1568" height="48" rx="8" fill="#f8f6f1"/>
<text x="52" y="538" fill="#102a43" font-family="DejaVu Sans, Arial, sans-serif" font-size="18">strip-trailing</text>
<text x="420" y="538" fill="#102a43" font-family="DejaVu Sans, Arial, sans-serif" font-size="18">0.2144s / 0.2036s</text>
<text x="620" y="538" fill="#102a43" font-family="DejaVu Sans, Arial, sans-serif" font-size="18">0.5796s / 0.5560s</text>
<text x="810" y="538" fill="#1f9d55" font-family="DejaVu Sans, Arial, sans-serif" font-size="18" font-weight="700">0.370x</text>
<rect x="1030" y="522" width="300" height="22" rx="11" fill="#e5e7eb"/>
<rect x="1030" y="522" width="103.59" height="22" rx="11" fill="#1f9d55"/>
<text x="1346" y="538" fill="#334e68" font-family="DejaVu Sans, Arial, sans-serif" font-size="17">2.70x faster</text>
<rect x="36" y="562" width="1568" height="48" rx="8" fill="#fffdf8"/>
<text x="52" y="590" fill="#102a43" font-family="DejaVu Sans, Arial, sans-serif" font-size="18">blank-delete</text>
<text x="420" y="590" fill="#102a43" font-family="DejaVu Sans, Arial, sans-serif" font-size="18">0.0125s / 0.0109s</text>
<text x="620" y="590" fill="#102a43" font-family="DejaVu Sans, Arial, sans-serif" font-size="18">0.0272s / 0.0236s</text>
<text x="810" y="590" fill="#1f9d55" font-family="DejaVu Sans, Arial, sans-serif" font-size="18" font-weight="700">0.460x</text>
<rect x="1030" y="574" width="300" height="22" rx="11" fill="#e5e7eb"/>
<rect x="1030" y="574" width="128.85" height="22" rx="11" fill="#1f9d55"/>
<text x="1346" y="590" fill="#334e68" font-family="DejaVu Sans, Arial, sans-serif" font-size="17">2.17x faster</text>
<rect x="36" y="614" width="1568" height="48" rx="8" fill="#f8f6f1"/>
<text x="52" y="642" fill="#102a43" font-family="DejaVu Sans, Arial, sans-serif" font-size="18">csv-reorder</text>
<text x="420" y="642" fill="#102a43" font-family="DejaVu Sans, Arial, sans-serif" font-size="18">0.6623s / 0.6324s</text>
<text x="620" y="642" fill="#102a43" font-family="DejaVu Sans, Arial, sans-serif" font-size="18">1.1704s / 1.1020s</text>
<text x="810" y="642" fill="#1f9d55" font-family="DejaVu Sans, Arial, sans-serif" font-size="18" font-weight="700">0.566x</text>
<rect x="1030" y="626" width="300" height="22" rx="11" fill="#e5e7eb"/>
<rect x="1030" y="626" width="158.44" height="22" rx="11" fill="#1f9d55"/>
<text x="1346" y="642" fill="#334e68" font-family="DejaVu Sans, Arial, sans-serif" font-size="17">1.77x faster</text>
<rect x="36" y="666" width="1568" height="48" rx="8" fill="#fffdf8"/>
<text x="52" y="694" fill="#102a43" font-family="DejaVu Sans, Arial, sans-serif" font-size="18">path-rewrite</text>
<text x="420" y="694" fill="#102a43" font-family="DejaVu Sans, Arial, sans-serif" font-size="18">0.0254s / 0.0218s</text>
<text x="620" y="694" fill="#102a43" font-family="DejaVu Sans, Arial, sans-serif" font-size="18">0.0759s / 0.0689s</text>
<text x="810" y="694" fill="#1f9d55" font-family="DejaVu Sans, Arial, sans-serif" font-size="18" font-weight="700">0.334x</text>
<rect x="1030" y="678" width="300" height="22" rx="11" fill="#e5e7eb"/>
<rect x="1030" y="678" width="93.59" height="22" rx="11" fill="#1f9d55"/>
<text x="1346" y="694" fill="#334e68" font-family="DejaVu Sans, Arial, sans-serif" font-size="17">2.99x faster</text>
<rect x="36" y="718" width="1568" height="48" rx="8" fill="#f8f6f1"/>
<text x="52" y="746" fill="#102a43" font-family="DejaVu Sans, Arial, sans-serif" font-size="18">step-delete</text>
<text x="420" y="746" fill="#102a43" font-family="DejaVu Sans, Arial, sans-serif" font-size="18">0.0145s / 0.0128s</text>
<text x="620" y="746" fill="#102a43" font-family="DejaVu Sans, Arial, sans-serif" font-size="18">0.0186s / 0.0164s</text>
<text x="810" y="746" fill="#1f9d55" font-family="DejaVu Sans, Arial, sans-serif" font-size="18" font-weight="700">0.781x</text>
<rect x="1030" y="730" width="300" height="22" rx="11" fill="#e5e7eb"/>
<rect x="1030" y="730" width="218.75" height="22" rx="11" fill="#1f9d55"/>
<text x="1346" y="746" fill="#334e68" font-family="DejaVu Sans, Arial, sans-serif" font-size="17">1.28x faster</text>
<rect x="36" y="770" width="1568" height="48" rx="8" fill="#fffdf8"/>
<text x="52" y="798" fill="#102a43" font-family="DejaVu Sans, Arial, sans-serif" font-size="18">email-redact</text>
<text x="420" y="798" fill="#102a43" font-family="DejaVu Sans, Arial, sans-serif" font-size="18">0.2049s / 0.1781s</text>
<text x="620" y="798" fill="#102a43" font-family="DejaVu Sans, Arial, sans-serif" font-size="18">0.8706s / 0.8202s</text>
<text x="810" y="798" fill="#1f9d55" font-family="DejaVu Sans, Arial, sans-serif" font-size="18" font-weight="700">0.235x</text>
<rect x="1030" y="782" width="300" height="22" rx="11" fill="#e5e7eb"/>
<rect x="1030" y="782" width="65.90" height="22" rx="11" fill="#1f9d55"/>
<text x="1346" y="798" fill="#334e68" font-family="DejaVu Sans, Arial, sans-serif" font-size="17">4.25x faster</text>
<rect x="36" y="822" width="1568" height="48" rx="8" fill="#f8f6f1"/>
<text x="52" y="850" fill="#102a43" font-family="DejaVu Sans, Arial, sans-serif" font-size="18">error-prefix</text>
<text x="420" y="850" fill="#102a43" font-family="DejaVu Sans, Arial, sans-serif" font-size="18">0.0330s / 0.0300s</text>
<text x="620" y="850" fill="#102a43" font-family="DejaVu Sans, Arial, sans-serif" font-size="18">0.0488s / 0.0457s</text>
<text x="810" y="850" fill="#1f9d55" font-family="DejaVu Sans, Arial, sans-serif" font-size="18" font-weight="700">0.675x</text>
<rect x="1030" y="834" width="300" height="22" rx="11" fill="#e5e7eb"/>
<rect x="1030" y="834" width="189.11" height="22" rx="11" fill="#1f9d55"/>
<text x="1346" y="850" fill="#334e68" font-family="DejaVu Sans, Arial, sans-serif" font-size="17">1.48x faster</text>
<rect x="36" y="874" width="1568" height="48" rx="8" fill="#fffdf8"/>
<text x="52" y="902" fill="#102a43" font-family="DejaVu Sans, Arial, sans-serif" font-size="18">status-rewrite</text>
<text x="420" y="902" fill="#102a43" font-family="DejaVu Sans, Arial, sans-serif" font-size="18">0.1885s / 0.1595s</text>
<text x="620" y="902" fill="#102a43" font-family="DejaVu Sans, Arial, sans-serif" font-size="18">0.6875s / 0.6352s</text>
<text x="810" y="902" fill="#1f9d55" font-family="DejaVu Sans, Arial, sans-serif" font-size="18" font-weight="700">0.274x</text>
<rect x="1030" y="886" width="300" height="22" rx="11" fill="#e5e7eb"/>
<rect x="1030" y="886" width="76.77" height="22" rx="11" fill="#1f9d55"/>
<text x="1346" y="902" fill="#334e68" font-family="DejaVu Sans, Arial, sans-serif" font-size="17">3.65x faster</text>
<text x="40" y="950" fill="#52606d" font-family="DejaVu Sans, Arial, sans-serif" font-size="16">Green rows favor fastsed. Red rows favor GNU sed.</text>
</svg>